<?xml version="1.0" standalone="no"?>
<!DOCTYPE svg PUBLIC "-//W3C//DTD SVG 1.1//EN" "http://www.w3.org/Graphics/SVG/1.1/DTD/svg11.dtd" >
<!--
2013-9-30: Created.
-->
<svg>
<metadata>
Created by iconfont
</metadata>
<defs>

<font id="iconfont" horiz-adv-x="1024" >
  <font-face
    font-family="iconfont"
    font-weight="500"
    font-stretch="normal"
    units-per-em="1024"
    ascent="896"
    descent="-128"
  />
    <missing-glyph />
    
    <glyph glyph-name="checked" unicode="&#58907;" d="M155.644361 456.774467L376.468722 235.91326700000002l486.86146 490.229161 95.379301-95.352695-585.574692-588.933183L65.289494 349.70184600000005 155.644361 456.774467 155.644361 456.774467zM155.644361 456.774467"  horiz-adv-x="1024" />

    
    <glyph glyph-name="safe" unicode="&#58987;" d="M110.935 751.6610000000001v-482.069s10.56-224.261 407.011-332.928c0 0 325.801 71.904 392.323 326.419 0.091 0.523 0 488.583 0 488.583l-391.071 79.671-408.265-79.675zM517.357-86.71699999999998l-5.409 1.488c-407.664 111.744-423.226 343.925-423.686 353.755l-0.025 1.071v500.765l431.059 84.125 413.683-84.278 0.005-18.543c0.091-489.969 0.091-489.969-0.322-492.379l-0.417-1.949c-28.809-110.213-109.056-204.533-232.066-272.765-91.603-50.807-173.881-69.317-177.331-70.085l-5.491-1.205zM133.639 270.346c0.384-4.431 5.712-54.729 52.56-115.829 45.341-59.136 139.699-140.587 332.103-194.395 41.155 10.541 310.089 87.403 369.278 305.966 0.052 30.499 0.019 305.04-0.009 467.026l-368.468 75.072-385.465-75.226v-462.614zM173.6 712.3009999999999l337.027 66.605v-354.129h-337.027zM513.028 424.777h337.373v-161.577s-16.809-179.995-337.123-268.637l-0.249 430.214z"  horiz-adv-x="1024" />

    
    <glyph glyph-name="customerservice" unicode="&#58887;" d="M153.6 550.4h-6.4c-12.8 6.4-12.8 19.2-12.8 32C198.4 729.6 345.6 832 512 832c160 0 307.2-96 371.2-243.2 6.4-12.8 0-19.2-12.8-25.6-12.8-6.4-19.2 0-25.6 12.8-51.2 128-185.6 217.6-332.8 217.6-147.2 0-281.6-89.6-339.2-230.4-6.4-6.4-12.8-12.8-19.2-12.8zM166.4 172.79999999999995c-57.6 0-108.8 51.2-108.8 108.8V403.2c0 57.6 51.2 108.8 108.8 108.8s108.8-51.2 108.8-108.8v-121.6c0-57.6-51.2-108.8-108.8-108.8z m0 300.8c-38.4 0-70.4-32-70.4-70.4v-121.6c0-38.4 32-70.4 70.4-70.4s70.4 32 70.4 70.4V403.2c0 38.4-32 70.4-70.4 70.4zM857.6 172.79999999999995c-57.6 0-108.8 51.2-108.8 108.8V403.2c0 57.6 51.2 108.8 108.8 108.8s108.8-51.2 108.8-108.8v-121.6c0-57.6-51.2-108.8-108.8-108.8z m0 300.8c-38.4 0-70.4-32-70.4-70.4v-121.6c0-38.4 32-70.4 70.4-70.4s70.4 32 70.4 70.4V403.2c0 38.4-32 70.4-70.4 70.4zM435.2-6.399999999999977h-57.6c-172.8 0-320 140.8-320 320h38.4c0-153.6 128-281.6 281.6-281.6h57.6v-38.4zM544-64h-64c-44.8 0-76.8 38.4-76.8 76.8s38.4 76.8 76.8 76.8h57.6c44.8 0 76.8-38.4 76.8-76.8S582.4-64 544-64z m-64 115.2c-19.2 0-38.4-19.2-38.4-38.4s19.2-38.4 38.4-38.4h57.6c19.2 0 38.4 19.2 38.4 38.4s-19.2 38.4-38.4 38.4h-57.6z"  horiz-adv-x="1024" />

    
    <glyph glyph-name="none" unicode="&#58946;" d="M156.662278 196.24182699999994h21.097186A10.444152 10.444152 0 0 0 187.994733 185.79767500000003c0-5.765172-4.490985-10.444152-10.235269-10.444152H156.662278v-21.097186A10.444152 10.444152 0 0 0 146.218126 144.021068a10.277045 10.277045 0 0 0-10.444152 10.235269V175.353523H114.676787A10.444152 10.444152 0 0 0 104.441518 185.79767500000003c0 5.765172 4.490985 10.444152 10.235269 10.444152H135.773974v21.097187A10.444152 10.444152 0 0 0 146.218126 227.57428300000004c5.765172 0 10.444152-4.490985 10.444152-10.235269v-21.097187z m1378.628042 83.553215v21.097186A10.277045 10.277045 0 0 1 1524.846168 311.12749699999995a10.444152 10.444152 0 0 1-10.444152-10.235269v-21.097186h-21.097186a10.277045 10.277045 0 0 1-10.235269-10.444152c0-5.598065 4.595427-10.444152 10.235269-10.444152h21.097186v-21.097187c0-5.744284 4.67898-10.235269 10.444152-10.235268a10.444152 10.444152 0 0 1 10.444152 10.235268V258.906738h21.097187c5.744284 0 10.235269 4.67898 10.235268 10.444152a10.444152 10.444152 0 0 1-10.235268 10.444152H1535.29032zM776.460024-64.86196900000004H250.596979A20.80475 20.80475 0 0 0 229.77134-43.97366499999998c0 11.530344 9.462402 20.888304 20.825639 20.888303h94.728457A83.010119 83.010119 0 0 0 334.212859 18.58680400000003v605.96969A83.49055 83.49055 0 0 0 417.849627 708.005267H480.430984V728.998012A83.49055 83.49055 0 0 0 564.067752 812.446785h501.152182A83.448773 83.448773 0 0 0 1148.856702 728.998012v-605.969689c0-15.185797-4.052331-29.410732-11.133466-41.672166h115.554096c11.551232 0 20.909192-9.274407 20.909192-20.888304 0-11.530344-9.295295-20.888304-20.888304-20.888304H1002.638576v-20.992745c0-15.185797-4.052331-29.410732-11.133466-41.672166h11.196131c11.488567 0 20.825639-9.274407 20.825639-20.888303 0-11.530344-9.462402-20.888304-20.825639-20.888304h-109.893365c9.545955-16.000441 7.478013-36.972297-6.41271-50.863019a41.672166 41.672166 0 0 0-59.072122 0L776.460024-64.86196900000004z m76.367638 41.776607h66.424806c22.977134 0 41.609501 18.59059 41.609501 41.881049V625.5382440000001c0 22.559368-18.047494 40.690416-40.314426 40.690416H416.303892c-22.266932 0-40.314426-18.214601-40.314426-40.690416v-606.742557c0-23.123352 18.799473-41.881049 41.588613-41.881049h317.084449l-10.736588 10.757477a41.693054 41.693054 0 0 0-10.861918 40.377091l-19.718558 19.739447A146.259902 146.259902 0 0 0 502.363703 268.306475a146.218126 146.218126 0 0 0 220.517822-190.981761l19.739447-19.739447a41.630389 41.630389 0 0 0 40.377091-10.841029L852.827662-23.085362000000032zM1002.638576 81.35615700000005h62.852906A41.797496 41.797496 0 0 1 1107.080095 123.13276399999995V728.8935710000001c0 23.14424-18.632367 41.776607-41.588613 41.776607H563.775316A41.797496 41.797496 0 0 1 522.207592 728.8935710000001v-20.888304h396.794216A83.448773 83.448773 0 0 0 1002.638576 624.5564939999999V81.35615700000005zM266.325872 849.001317h31.123572c8.773088 0 15.875111-6.955805 15.875111-15.666228 0-8.647758-7.102023-15.666228-15.875111-15.666228h-31.123572v-31.123572c0-8.773088-6.955805-15.875111-15.666228-15.875111a15.770669 15.770669 0 0 0-15.666228 15.875111V817.668861H203.869844A15.728893 15.728893 0 0 0 187.994733 833.335089c0 8.647758 7.102023 15.666228 15.875111 15.666228h31.123572V880.124889c0 8.773088 6.955805 15.875111 15.666228 15.875111 8.647758 0 15.666228-7.102023 15.666228-15.875111v-31.123572zM20.888304-43.97366499999998c0 11.530344 9.462402 20.888304 20.825638 20.888303h125.455152c11.488567 0 20.825639-9.274407 20.825639-20.888303 0-11.530344-9.462402-20.888304-20.825639-20.888304H41.713942A20.80475 20.80475 0 0 0 20.888304-43.97366499999998z m658.733544 135.021995a104.441518 104.441518 0 1 1-147.722083 147.722083 104.441518 104.441518 0 0 1 147.722083-147.722083zM459.542681 582.6754450000001a20.888304 20.888304 0 0 0 20.867415 20.888304H710.202325a20.888304 20.888304 0 1 0 0-41.776608H480.430984A20.825639 20.825639 0 0 0 459.542681 582.6754450000001z m0-104.441518c0 11.530344 9.295295 20.888304 20.742085 20.888303h334.505295c11.44679 0 20.742086-9.274407 20.742086-20.888303 0-11.530344-9.295295-20.888304-20.742086-20.888304H480.284766A20.762974 20.762974 0 0 0 459.542681 478.233927z m0-104.441519c0 11.530344 9.316183 20.888304 20.846527 20.888304h146.301679c11.509455 0 20.846527-9.274407 20.846527-20.888304 0-11.530344-9.316183-20.888304-20.846527-20.888303h-146.301679A20.80475 20.80475 0 0 0 459.542681 373.792408zM62.664911 499.12223a62.664911 62.664911 0 1 0 0 125.329822 62.664911 62.664911 0 0 0 0-125.329822z m0 31.332456a31.332456 31.332456 0 1 1 0 62.664911 31.332456 31.332456 0 0 1 0-62.664911zM1357.739739 624.452052a62.664911 62.664911 0 1 0 0 125.329822 62.664911 62.664911 0 0 0 0-125.329822z m0 31.332456a31.332456 31.332456 0 1 1 0 62.664911 31.332456 31.332456 0 0 1 0-62.664911z"  horiz-adv-x="1567" />

    
    <glyph glyph-name="tips" unicode="&#58885;" d="M512-62.70897100000002c-246.312872 0-446.708971 200.396099-446.708971 446.708971S265.686105 830.709995 512 830.709995 958.708971 630.313895 958.708971 384 758.312872-62.70897100000002 512-62.70897100000002zM512 766.476041c-210.893174 0-382.476041-171.582867-382.476041-382.476041S301.106826 1.5249820000000227 512 1.5249820000000227s382.476041 171.582867 382.476041 382.476041S722.892151 766.476041 512 766.476041zM612.658538 247.83273699999995l-2.446726 3.530407-7.680936 3.421936h-3.530406c-4.103458 0-8.594749-1.083681-22.639627-7.974625l-22.500456-15.190981c-6.163373-3.901867-12.991895-7.185656-20.347421-9.756201-7.742335-2.740414-15.918551-4.9088-24.26566-6.441713-5.77554-1.068332-10.390651-1.827625-15.392572-1.563612-6.984065 0.836041-8.950859 3.577478-9.66308 4.598738-2.090615 2.926656-2.818185 8.408507-2.075265 15.453971 1.099031 10.329253 4.042059 24.49795 8.733918 42.120306 4.831029 18.040888 9.53926 33.711799 14.044878 46.966685 4.52199 13.239536 9.848299 27.068496 15.996323 41.577954 6.054903 14.33959 10.917654 24.730241 14.44806 30.924313 3.236718 5.729491 8.098445 12.078083 14.494109 18.97005 6.054903 6.612605 20.23895 22.097274 12.062733 36.979216-4.444219 8.021697-12.248975 12.837376-24.49795 13.61202-5.977132 0-12.589736-1.300622-20.192901-3.948939-7.928576-2.772136-12.961196-4.878101-14.927991-5.992481-2.028193-1.099031-5.17179-3.128247-19.031449-14.47876-13.766538-11.226692-17.653055-15.733333-19.697621-19.650549-1.997494-3.778046-3.545756-9.105379-4.691859-22.794145-0.433882-5.095042-2.384303-15.238053-9.43079-35.151591l-19.96061-63.939242-16.074094-44.1178c-4.15053-15.06716-5.714142-28.121478-4.78498-39.859823 0.86674-11.412934 3.158946-22.066575 6.813173-31.621185 4.025687-10.607592 9.616008-19.263739 16.584723-25.705451 7.633864-7.092535 17.064654-11.506055 27.470655-13.007245 2.833535-0.51063 5.961782-0.789992 9.368368-0.789993 8.563026 0 18.536168 1.719154 30.522154 5.28026 14.865569 4.428869 27.129894 8.888438 37.428448 13.612019 10.344602 4.66116 20.069081 10.096962 28.972868 16.150842 8.067746 5.559623 16.414855 11.521404 24.977881 17.947767 10.979052 8.253988 17.932418 16.708544 21.323655 25.937743C614.919021 230.86120400000004 618.155738 239.87346200000002 612.658538 247.83273699999995zM483.835544 519.7753359999999c5.16258-4.316306 11.573593-6.67605 19.228946-7.121188 8.992815-0.890276 21.50171 4.494361 37.480636 16.203031 15.935947 11.706623 24.39562 21.0095 25.285897 27.999704 0.890276 6.988158-1.469468 17.759479-7.078209 32.405037-5.65172 14.600533-10.905374 23.950482-15.84692 27.999705-4.984524 4.051269-10.816347 6.27696-17.537422 6.722098-13.087063 0.445138-24.75173-5.520737-35.122938-17.850553-10.327206-12.374842-16.960277-22.300912-19.897166-29.69123-2.937912-7.433296-4.363378-12.730952-4.363378-15.846919-0.445138-5.429663 1.113357-12.507872 4.719488-21.276583C474.307539 530.5497270000001 478.670917 524.0046609999999 483.835544 519.7753359999999z"  horiz-adv-x="1024" />

    
    <glyph glyph-name="star" unicode="&#58891;" d="M1080.270639 442.266282c-77.161903-88.184889-214.58473-234.425705-214.58473-234.425705s22.045972-160.203798 35.273956-269.70066c5.878993-55.85193-37.478953-80.101899-85.980892-58.054927-92.594883 43.357945-233.690706 110.96686-265.290665 126.399841-32.334959-14.697981-174.165781-81.571897-267.495663-124.928843-49.236938-21.310973-92.594883 2.204997-87.45089 58.054927 12.492984 109.496862 35.273956 268.965661 35.273955 268.965661S91.123885 354.082393 13.227983 442.267282c-27.924965 32.334959-9.551988 77.896902 44.827944 85.980891 111.701859 19.841975 284.397642 51.441935 284.397642 51.441935s94.798881 163.143794 154.324805 263.086669C529.848333 903.7717 552.629304 896.422709 556.304299 894.952711c10.287987-2.939996 26.455967-15.431981 47.032941-52.175934 58.789926-99.943874 152.119808-263.087669 152.119808-263.087669s170.491785-31.60096 280.723647-51.441935c53.645932-8.08399 71.28291-54.380931 44.092944-85.980891z"  horiz-adv-x="1092" />

    
    <glyph glyph-name="clean" unicode="&#59127;" d="M358.869333 210.688a42.666667 42.666667 0 0 0 25.258667-54.784l-39.68-107.648A67.541333 67.541333 0 0 1 407.893333-42.666667v-85.333333c-106.410667 0-180.266667 105.984-143.445333 205.781333l39.68 107.648a42.666667 42.666667 0 0 0 54.784 25.258667z m211.584 0a42.666667 42.666667 0 0 0 25.258667-54.784l-39.936-108.373333A67.029333 67.029333 0 0 1 618.666667-42.666667v-85.333333c-106.026667 0-179.626667 105.6-142.933334 205.056l39.936 108.373333a42.666667 42.666667 0 0 0 54.784 25.258667zM546.986667 840.618667A85.333333 85.333333 0 0 0 626.901333 896h100.864a85.333333 85.333333 0 0 0 79.914667-115.285333L722.901333 554.666667h41.728a42.666667 42.666667 0 0 0 0-85.333334H391.509333l-17.152-42.666666H938.666667a42.666667 42.666667 0 1 0 0-85.333334h-27.605334l-107.477333-298.965333a42.666667 42.666667 0 0 1 7.765333-42.197333l49.450667-57.770667a42.666667 42.666667 0 0 0-32.426667-70.4H226.133333c-118.698667 0-201.173333 118.186667-160.128 229.632L154.282667 341.333333H100.266667a42.666667 42.666667 0 1 0 0 85.333334h182.101333l29.952 74.496A85.333333 85.333333 0 0 0 391.509333 554.666667h48.256l107.221334 285.952zM530.901333 554.666667h100.864l96 256h-100.864l-96-256z m-285.696-213.333334l-99.072-269.184A85.333333 85.333333 0 0 1 226.133333-42.666667h510.805334a128 128 0 0 0-13.653334 113.92L820.352 341.333333H245.248z"  horiz-adv-x="1024" />

    
    <glyph glyph-name="dot" unicode="&#58884;" d="M512 382.6m-192 0a192 192 0 1 1 384 0 192 192 0 1 1-384 0Z"  horiz-adv-x="1024" />

    
    <glyph glyph-name="back" unicode="&#58895;" d="M892.5 449.8H284l268 268c24.9 24.9 24.9 65.5 0 90.4-24.9 24.9-65.5 24.9-90.4 0L84.4 431c-24.9-24.9-24.9-65.5 0-90.4 2-2 4.1-3.8 6.2-5.5l371.6-371.6c24.9-24.9 65.5-24.9 90.4 0 24.9 24.9 24.9 65.5 0 90.4l-268 268h607.8c35.2 0 63.9 28.8 63.9 63.9 0.1 35.2-28.7 64-63.8 64z"  horiz-adv-x="1024" />

    
    <glyph glyph-name="arrowup" unicode="&#58900;" d="M65.42293333 183.17973332999998c0 15.2864 5.87946667 29.52213333 16.56426667 40.16746667l390.38933333 389.696c1.39306667 1.42613333 2.57813333 2.53866667 3.84746667 3.4496l2.90453333 2.304c11.41653333 11.3632 24.84906667 16.9472 39.0688 16.9472 14.47573333 0 28.01066667-5.70773333 38.112-16.05653333l388.21653334-392.37653334c10.4672-10.6144 16.2368-24.7872 16.2368-39.8944 0-14.7712-5.6-28.7264-15.7536-39.28746666-10.1856-10.49706667-24.39146667-16.5408-38.95253334-16.53973334-14.38293333 0-28.0096 5.72266667-38.36693333 16.14293334l-350.16853333 353.96906666-359.42826667-358.4864c-10.3104-10.24746667-23.7824-15.90933333-37.9936-15.90933333-14.88853333 0-28.85866667 6.0512-39.3344 16.99946667-9.88906667 10.4192-15.33973333 24.2496-15.33973333 38.8736z"  horiz-adv-x="1024" />

    
    <glyph glyph-name="arrowleft" unicode="&#58888;" d="M758.10133333 823.13671111c21.39022222-21.39022222 21.39136-55.86488889 0-77.25624889l-361.81333333-361.81333333 361.81333333-361.81333334c21.39022222-21.39022222 21.39022222-55.97866667 0-77.25624888-21.39022222-21.39022222-55.86488889-21.39136-77.25624888 0l-400.49777778 400.49777778c-21.39022222 21.39022222-21.39022222 55.97866667 0 77.25624888l400.49777778 400.49777778c10.69511111 10.69511111 24.68977778 15.92888889 38.68444444 15.92888889 13.88088889-0.11377778 27.87669333-5.34755555 38.57066666-16.04266667z"  horiz-adv-x="1024" />

    
    <glyph glyph-name="staking" unicode="&#59386;" d="M439.66767407 376.35413334L116.35674074 551.11680001C109.80314074 554.7576889 102.52136295 556.2140444500001 95.96776295 556.2140444500001 72.66607407 556.2140444500001 50.82074074 535.82506668 50.82074074 507.42613334l0-341.51537778c0-35.68071111 18.20444445-67.72053333 48.05973333-83.74044445l323.31093333-174.76266666C428.7450074-96.23324444000002 436.02678517-98.41777777000004 442.58038517-98.41777777000004 465.88207407-98.41777777000004 487.7274074-77.30062222000004 487.7274074-48.901688889999946L487.7274074 292.61368890000006C487.7274074 327.56622223 469.52296295 360.33422223 439.66767407 376.35413334zM414.90962962-5.93919999000002l-281.8048 152.18915555C128.73576295 149.16266668000003 123.63851851 155.71626668 123.63851851 165.91075555999998l0 298.55288889 281.8048-152.18915555C411.26874074 308.63360001 414.90962962 300.62364445000003 414.90962962 292.61368890000006L414.90962962-5.93919999000002zM952.30482962 556.2140444500001c-6.5536 0-13.83537778-1.45635555-20.38897778-5.09724444L608.60491851 375.62595555999997C578.74962962 359.60604445 560.54518517 326.83804445 560.54518517 291.15733334000004l0-340.05902223C560.54518517-77.30062222000004 582.39051851-98.41777777000004 605.6922074-98.41777777000004c6.5536 0 13.83537778 1.45635555 20.38897777 5.09724445l323.31093334 175.49084443c29.12711111 16.01991111 48.05973333 48.05973333 48.05973333 83.74044445L997.45185184 507.42613334C997.45185184 535.82506668 975.60651851 556.2140444500001 952.30482962 556.2140444500001zM924.63407407 166.63893334c0-10.19448889-5.09724445-17.47626667-9.46631112-19.6608L633.36296295-5.93919999000002 633.36296295 291.15733334000004c0 10.19448889 5.09724445 17.47626667 9.46631112 19.6608L924.63407407 464.46364445 924.63407407 166.63893334zM902.06056295 631.21635556c15.29173333 8.00995555 22.57351111 21.84533333 21.11715556 34.95253334 1.45635555 13.83537778-5.82542222 26.94257778-21.11715556 34.95253333L572.9242074 872.97137778C558.36065184 880.98133334 541.61256295 884.62222223 524.13629629 884.62222223c0 0 0 0 0 0 0 0 0 0 0 0-17.47626667 0-34.22435555-3.64088889-49.51608889-11.65084445L144.75567407 701.84960001C129.46394074 693.83964445 122.91034074 680.00426668 123.63851851 666.1688889 122.91034074 653.0616889 129.46394074 639.22631111 144.75567407 631.21635556l329.13635555-171.12177778c14.56355555-8.00995555 32.03982222-11.65084445 49.51608889-11.65084444 0 0 0 0 0.72817778 0 0 0 0 0 0.72817778 0 17.47626667 0 34.22435555 3.64088889 49.51608888 11.65084444L902.06056295 631.21635556zM523.40811851 521.26151111c-5.82542222 0-11.65084445 1.45635555-16.01991111 3.6408889L235.04971851 666.1688889l272.33848889 141.99466666C511.75727407 810.3480889 517.58269629 811.80444445 524.13629629 811.80444445c5.82542222 0 11.65084445-1.45635555 16.01991111-3.64088889l272.33848889-141.99466666L539.42802962 524.9024000100001C535.78714074 522.71786668 529.96171851 521.26151111 523.40811851 521.26151111z"  horiz-adv-x="1024" />

    
    <glyph glyph-name="exchange2" unicode="&#59144;" d="M883.09333344 437.33333344L458.18666656 437.33333344 243.57333312 437.33333344 458.18666656 650.6666662499999 458.18666656 544.00000031 849.22666625 544.00000031C788.79999969 669.65333344 661.01333375 757.33333312 511.83999969 757.33333312 322.98666687 757.33333312 166.71999969 617.9733337499999 140.58666687 437.33333344L32.16000031 437.33333344C58.82666656 677.3333334399999 263.30666656 864 511.83999969 864 760.32000031 864 964.80000031 677.3333334399999 991.52 437.33333344L887.36 437.33333344 883.09333344 437.33333344ZM140.58666687 330.66666655999995L511.83999969 330.66666655999995 726.39999969 330.66666655999995 511.83999969 117.33333374999995 511.83999969 223.99999968999998 174.45333312 223.99999968999998C234.82666625 98.34666656000002 362.61333312 10.66666687999998 511.83999969 10.66666687999998 700.64 10.66666687999998 856.90666625 150.07999969000002 883.09333344 330.66666655999995L991.52 330.66666655999995C964.80000031 90.72000000000003 760.32000031-96 511.83999969-96 263.30666656-96 58.82666656 90.72000000000003 32.16000031 330.66666655999995L82.61333375 330.66666655999995 140.58666687 330.66666655999995Z"  horiz-adv-x="1024" />

    
    <glyph glyph-name="defi" unicode="&#59012;" d="M232 681.6H60.8c-17.6 0-32 14.4-32 32s14.4 32 32 32h171.2c17.6 0 32-14.4 32-32s-14.4-32-32-32zM963.2 681.6H491.2c-17.6 0-32 14.4-32 32s14.4 32 32 32h472c17.6 0 32-14.4 32-32s-14.4-32-32-32zM491.2 596.8H232c-17.6 0-32 14.4-32 32V800c0 17.6 14.4 32 32 32h257.6c17.6 0 32-14.4 32-32v-171.2c1.6-17.6-12.8-32-30.4-32z m-227.2 64h193.6V768H264v-107.2zM963.2 337.6H792c-17.6 0-32 14.4-32 32s14.4 32 32 32h171.2c17.6 0 32-14.4 32-32s-14.4-32-32-32zM532.8 337.6H60.8c-17.6 0-32 14.4-32 32s14.4 32 32 32h472c17.6 0 32-14.4 32-32s-14.4-32-32-32zM792 252.79999999999995H532.8c-17.6 0-32 14.4-32 32V456c0 17.6 14.4 32 32 32h257.6c17.6 0 32-14.4 32-32v-171.2c1.6-17.6-12.8-32-30.4-32z m-227.2 64h193.6v107.2H564.8v-107.2zM232-6.399999999999977H60.8c-17.6 0-32 14.4-32 32s14.4 32 32 32h171.2c17.6 0 32-14.4 32-32s-14.4-32-32-32zM963.2-6.399999999999977H491.2c-17.6 0-32 14.4-32 32s14.4 32 32 32h472c17.6 0 32-14.4 32-32s-14.4-32-32-32zM491.2-91.20000000000005H232c-17.6 0-32 14.4-32 32V112c0 17.6 14.4 32 32 32h257.6c17.6 0 32-14.4 32-32v-171.2c1.6-17.6-12.8-32-30.4-32z m-227.2 64h193.6V80H264v-107.2z"  horiz-adv-x="1024" />

    
    <glyph glyph-name="help" unicode="&#58899;" d="M609.792 637.952l195.072 16.384c27.648 3.072 52.224-16.384 55.808-43.52 0-2.048 0.512-3.584 0.512-5.632l1.536-271.36c-0.512-30.72-24.576-56.32-55.296-58.88l-195.072-16.384c-27.648-3.072-52.224 16.384-55.808 43.52 0 2.048-0.512 3.584-0.512 5.632l-1.536 271.36c0.512 30.72 24.576 56.32 55.296 58.88zM215.552 262.65599999999995c-10.24 0-17.92 8.192-17.92 17.92V615.9359999999999c0.512 32.256 26.624 58.368 58.88 57.856h45.056c33.28-2.048 66.048-11.264 95.744-26.112 9.216-4.096 13.312-14.336 9.216-23.552-4.096-9.216-14.336-13.312-23.552-9.216-25.6 12.8-53.248 20.992-81.408 23.04h-45.056c-12.288 0-22.528-9.728-22.528-21.504v-335.36c-0.512-10.24-8.192-17.92-18.432-18.432zM860.16 744.448c28.672 0.512 52.224-22.016 52.736-50.688v-461.312c-0.512-28.672-24.064-51.2-52.736-50.688h-87.552c-70.144 0-139.264-14.336-203.776-41.984l-50.176-21.504-50.176 21.504c-64.512 27.648-133.632 41.984-203.776 41.984H177.152c-28.672-0.512-52.224 22.016-52.736 50.688V693.76c0.512 28.672 24.064 51.2 52.736 50.688h87.552c55.808 0 110.592-11.264 161.792-33.28l50.176-21.504c26.624-11.264 56.832-11.264 83.456 0l50.176 21.504c51.2 22.016 105.984 33.28 161.792 33.28H860.16m0 53.248h-87.552c-62.976 0-124.928-12.8-182.784-37.376l-50.176-21.504c-13.312-5.632-28.16-5.632-41.984 0l-50.176 21.504c-57.856 24.576-119.808 37.376-182.784 37.376H177.152c-57.856 0.512-105.472-46.08-105.984-103.936v-461.312c0.512-57.856 47.616-104.448 105.984-103.936h87.552c62.976 0 124.928-12.8 182.784-37.376l50.176-21.504c13.312-5.632 28.16-5.632 41.984 0l50.176 21.504c57.856 24.576 119.808 37.376 182.784 37.376H860.16c57.856-0.512 105.472 46.08 105.984 103.936V693.76c-1.024 57.856-48.128 104.448-105.984 103.936z"  horiz-adv-x="1024" />

    
    <glyph glyph-name="verification" unicode="&#59196;" d="M896 768c34.992 0 63.4256-28.0832 63.992-62.9424L960 704v-320.1008c0-13.2544-10.7456-24-24-24-13.088 0-23.728 10.4752-23.9952 23.4976l-0.0048 0.5024V704c0 8.688-6.9232 15.7568-15.552 15.9936L896 720H128c-8.688 0-15.7568-6.9232-15.9936-15.552L112 704v-640c0-8.688 6.9232-15.7568 15.552-15.9936L128 48h385.7552c13.256 0 24-10.7456 24-24 0-13.088-10.4736-23.728-23.4976-23.9952l-0.5024-0.0048H128c-34.992 0-63.4256 28.0832-63.992 62.9424L64 64V704c0 34.992 28.0832 63.4256 62.9424 63.992L128 768h768z m56.2128-507.4208c9.3728-9.3728 9.3728-24.5696 0-33.9408l-219.4864-219.488c-9.3712-9.3712-24.568-9.3712-33.9408 0L583.36 122.58079999999995c-9.3712 9.3728-9.3712 24.568 0 33.9408 9.3728 9.3728 24.5696 9.3728 33.9424 0l98.456-98.456L918.272 260.5792c9.3728 9.3728 24.568 9.3728 33.9408 0zM352 576c61.856 0 112-50.144 112-112 0-31.8576-13.3008-60.608-34.6528-81.0032C492.3232 353.78560000000004 536 289.9936 536 216c0-13.2544-10.7456-24-24-24-13.2544 0-24 10.7456-24 24 0 75.1104-60.8896 136-136 136s-136-60.8896-136-136c0-13.2544-10.7456-24-24-24-13.2544 0-24 10.7456-24 24 0 73.9936 43.6752 137.7856 106.6528 167.0016C253.3008 403.392 240 432.144 240 464c0 61.856 50.144 112 112 112z m480-168c13.2544 0 24-10.7456 24-24 0-13.2544-10.7456-24-24-24h-144c-13.2544 0-24 10.7456-24 24 0 13.2544 10.7456 24 24 24h144z m-480 120c-35.3456 0-64-28.6544-64-64s28.6544-64 64-64 64 28.6544 64 64-28.6544 64-64 64z m480 48c13.2544 0 24-10.7456 24-24 0-13.2544-10.7456-24-24-24H600c-13.2544 0-24 10.7456-24 24 0 13.2544 10.7456 24 24 24h232z"  horiz-adv-x="1024" />

    
    <glyph glyph-name="search" unicode="&#58890;" d="M919.179 16.323999999999955L743.601 190.85699999999997c-0.25 0.249-0.508 0.485-0.765 0.723 54.864 64.213 87.997 147.552 87.997 238.632 0 202.998-164.562 367.56-367.56 367.56S95.713 633.21 95.713 430.212s164.562-367.56 367.56-367.56c91.779 0 175.699 33.641 240.109 89.261 0.242-0.26 0.485-0.52 0.739-0.773l175.578-174.533a27.912 27.912 0 0 1 19.739-8.142c7.194 0 14.387 2.755 19.859 8.26 10.901 10.968 10.849 28.697-0.118 39.599z m-334.65 126.789c-38.375-16.231-79.171-24.461-121.256-24.461-42.085 0-82.881 8.23-121.256 24.461-37.094 15.689-70.419 38.162-99.05 66.793-28.631 28.631-51.104 61.956-66.793 99.05-16.231 38.375-24.461 79.171-24.461 121.256 0 42.085 8.23 82.881 24.461 121.256 15.689 37.094 38.162 70.419 66.793 99.05 28.631 28.631 61.956 51.104 99.05 66.793 38.375 16.231 79.171 24.461 121.256 24.461 42.085 0 82.881-8.23 121.256-24.461 37.094-15.689 70.419-38.162 99.05-66.793 28.631-28.631 51.104-61.956 66.793-99.05 16.231-38.375 24.461-79.171 24.461-121.256 0-42.085-8.23-82.881-24.461-121.256-15.689-37.094-38.162-70.419-66.793-99.05-28.631-28.631-61.956-51.103-99.05-66.793z"  horiz-adv-x="1024" />

    
    <glyph glyph-name="arrowdown" unicode="&#58906;" d="M472.064 144.44799999999998L72.832 543.6800000000001c-22.08 22.08-22.08 57.792 0 79.872 22.016 22.016 57.792 22.08 79.872 0L512 264.256l359.296 359.296c22.016 22.016 57.792 22.08 79.872 0 22.08-22.08 22.016-57.792 0-79.872l-399.232-399.232C529.856 122.43200000000002 494.144 122.43200000000002 472.064 144.44799999999998z"  horiz-adv-x="1024" />

    
    <glyph glyph-name="caidan" unicode="&#58972;" d="M858.026667 588.8H186.026667c-12.373333 0-22.186667 9.813333-22.186667 22.186667v23.466666c0 12.373333 9.813333 22.186667 22.186667 22.186667h672c12.373333 0 22.186667-9.813333 22.186666-22.186667v-23.466666c0-12.373333-9.813333-22.186667-22.186666-22.186667zM858.026667 349.866667H186.026667c-12.373333 0-22.186667 9.813333-22.186667 22.186666v23.466667c0 12.373333 9.813333 22.186667 22.186667 22.186667h672c12.373333 0 22.186667-9.813333 22.186666-22.186667v-23.466667c0-12.373333-9.813333-22.186667-22.186666-22.186666zM858.026667 110.933333H186.026667c-12.373333 0-22.186667 9.813333-22.186667 22.186667v23.466667c0 12.373333 9.813333 22.186667 22.186667 22.186666h672c12.373333 0 22.186667-9.813333 22.186666-22.186666v-23.466667c0-12.373333-9.813333-22.186667-22.186666-22.186667z"  horiz-adv-x="1024" />

    
    <glyph glyph-name="diqiu" unicode="&#59492;" d="M534.987755-12.538776l18.808163 1.567347c1.567347 0 3.134694 0.522449 5.22449 0.522449 4.702041 0.522449 9.404082 1.044898 14.106123 2.089796 84.636735 13.061224 162.481633 52.767347 223.085714 115.461225 48.587755 50.155102 82.546939 110.759184 99.787755 176.587755 0 0.522449 0 1.044898 0.522449 1.567347 1.567347 5.22449 2.612245 10.971429 3.657143 16.718367 0 1.044898 0.522449 2.089796 0.522449 3.134694 1.044898 5.22449 2.089796 10.44898 2.612245 15.15102 0 1.567347 0.522449 2.612245 0.522449 4.179592 0.522449 4.702041 1.044898 9.404082 2.089796 14.628572 0 1.567347 0.522449 3.657143 0.522449 5.22449 0.522449 4.702041 1.044898 9.404082 1.044898 14.628571 0 1.567347 0.522449 3.657143 0.522449 5.22449 0.522449 6.791837 0.522449 13.061224 0.522449 19.853061s0 13.583673-0.522449 19.853061c0 1.567347-0.522449 3.657143-0.522449 5.22449-0.522449 4.702041-0.522449 9.926531-1.044898 14.628571 0 1.567347-0.522449 3.657143-0.522449 5.22449-0.522449 4.702041-1.044898 9.404082-2.089796 14.628572 0 1.567347-0.522449 2.612245-0.522449 4.179592-1.044898 5.22449-1.567347 10.44898-2.612245 15.15102 0 1.044898-0.522449 2.089796-0.522449 3.134694-1.044898 5.746939-2.612245 10.971429-3.657143 16.718367 0 0.522449 0 1.044898-0.522449 1.567347-17.240816 65.828571-51.2 126.955102-99.787755 176.587755-61.126531 62.693878-138.44898 102.4-223.085714 115.461225-4.702041 0.522449-9.404082 1.044898-14.106123 2.089796-1.567347 0-3.134694 0.522449-5.22449 0.522449l-18.808163 1.567347h-0.522449c-6.269388 0.522449-13.061224 0.522449-19.330612 0.522448h-10.971429c-6.269388 0-13.061224-0.522449-19.330612-1.044897h-0.522449l-18.808163-1.567347h-1.567347c-5.746939-0.522449-11.493878-1.567347-17.240816-2.612245-1.044898 0-2.612245-0.522449-3.657143-0.522449-4.702041-1.044898-9.926531-1.567347-14.628572-2.612245-2.612245-0.522449-4.702041-1.044898-6.791836-1.567347-3.657143-1.044898-7.314286-1.567347-10.971429-2.612245l-10.971429-3.134694c-2.089796-0.522449-4.179592-1.044898-6.791836-2.089796-5.22449-1.567347-10.44898-3.657143-15.67347-5.22449-0.522449 0-1.044898-0.522449-1.567347-0.522449-55.379592-20.897959-106.057143-53.289796-147.853061-96.653061-48.587755-50.155102-82.546939-110.759184-99.787755-176.587755 0-0.522449 0-1.044898-0.522449-1.567347-1.567347-5.22449-2.612245-10.971429-3.657143-16.718367 0-1.044898-0.522449-2.089796-0.522449-3.134694-1.044898-5.22449-2.089796-10.44898-2.612245-15.15102 0-1.567347-0.522449-2.612245-0.522449-4.179592-0.522449-4.702041-1.044898-9.404082-2.089796-14.628572 0-1.567347-0.522449-3.657143-0.522449-5.22449-0.522449-4.702041-1.044898-9.404082-1.044898-14.628571 0-1.567347-0.522449-3.657143-0.522449-5.22449-1.044898-6.269388-1.044898-13.061224-1.044897-19.853061s0-13.583673 0.522448-19.853061c0-1.567347 0.522449-3.657143 0.522449-5.22449 0.522449-4.702041 0.522449-9.926531 1.044898-14.628571 0-1.567347 0.522449-3.657143 0.522449-5.22449 0.522449-4.702041 1.044898-9.404082 2.089796-14.628572 0-1.567347 0.522449-2.612245 0.522449-4.179592 1.044898-5.22449 1.567347-10.44898 2.612245-15.15102 0-1.044898 0.522449-2.089796 0.522449-3.134694 1.044898-5.746939 2.612245-10.971429 3.657143-16.718367 0-0.522449 0-1.044898 0.522449-1.567347 17.240816-65.828571 51.2-126.955102 99.787755-176.587755 42.318367-43.363265 92.473469-75.755102 147.853061-96.130612 0.522449 0 1.567347-0.522449 2.089796-0.522449 5.22449-2.089796 10.44898-3.657143 15.151021-5.22449 2.089796-0.522449 4.702041-1.567347 6.791836-2.089796l10.971429-3.134694c3.657143-1.044898 7.314286-2.089796 10.971429-2.612245 2.089796-0.522449 4.702041-1.044898 6.791836-1.567347 4.702041-1.044898 9.926531-2.089796 14.628572-2.612245 1.044898 0 2.612245-0.522449 3.657143-0.522449 5.746939-1.044898 11.493878-1.567347 17.240816-2.612245h1.567347l18.808163-1.567347h0.522449c6.269388-0.522449 12.538776-0.522449 19.330612-1.044898h11.493878c6.269388 0 13.061224 0 19.330612 0.522449l0.522449-0.522449zM447.216327 36.571429c-3.134694 0.522449-6.269388 1.044898-8.881633 1.567347-4.179592 1.044898-8.881633 2.089796-13.061225 3.134693-1.567347 0.522449-3.134694 1.044898-4.70204 1.044898-3.657143 1.044898-7.836735 2.089796-11.493878 3.134694-1.044898 0.522449-2.089796 0.522449-3.134694 1.044898-49.632653 15.673469-95.085714 42.318367-132.702041 76.8 24.555102 22.987755 52.244898 41.795918 82.546939 56.42449 22.987755-52.767347 55.379592-101.877551 94.563265-144.195918-1.044898 1.044898-2.089796 1.044898-3.134693 1.044898z m-272.718368 242.416326l-4.702041 15.673469c0 0.522449-0.522449 1.044898-0.522449 1.567347-1.044898 4.702041-2.089796 9.926531-3.134693 14.628572 0 1.044898-0.522449 1.567347-0.522449 2.612245-1.044898 4.702041-1.567347 8.881633-2.612245 13.583673 0 1.567347-0.522449 2.612245-0.522449 4.179592l-1.567347 12.538776c0 1.567347-0.522449 3.134694-0.522449 4.70204-0.522449 4.179592-0.522449 8.359184-1.044898 13.061225v3.134694h154.644898c2.089796-50.155102 10.971429-99.787755 27.689796-146.808164-35.004082-16.718367-66.873469-38.661224-95.608164-65.306122-31.869388 36.04898-56.42449 78.889796-71.57551 126.432653z m-14.106122 140.538776c0 1.567347 0.522449 3.134694 0.522449 4.70204l1.567347 12.538776c0 1.567347 0.522449 2.612245 0.522449 4.179592 0.522449 4.702041 1.567347 8.881633 2.612245 13.583673 0 1.044898 0.522449 2.089796 0.522449 2.612245 1.044898 4.702041 2.089796 9.926531 3.134693 14.628572 0 0.522449 0.522449 1.044898 0.522449 1.567347 1.567347 5.22449 2.612245 10.44898 4.702041 15.673469C189.64898 536.555102 214.204082 579.395918 245.55102 615.967347c28.734694-26.644898 60.604082-48.065306 95.608164-65.306123-16.195918-47.542857-25.6-96.653061-27.689796-146.808163H159.346939v3.134694c0.522449 4.179592 0.522449 8.359184 1.044898 12.538776z m245.55102 301.453061c1.044898 0.522449 2.089796 0.522449 3.134694 1.044898 4.179592 1.044898 7.836735 2.089796 12.016327 3.657143 1.567347 0.522449 2.612245 1.044898 4.179591 1.044898 4.179592 1.044898 8.881633 2.089796 13.583674 3.134693 3.134694 0.522449 5.746939 1.044898 8.881633 1.567347 1.044898 0 2.089796 0.522449 3.134693 0.522449-40.228571-42.840816-72.097959-91.428571-95.608163-144.718367-29.779592 14.628571-57.469388 33.959184-82.546939 56.42449 38.138776 35.004082 83.069388 61.64898 133.22449 77.322449z m176.587755 8.881632h1.044898c63.738776-13.061224 120.685714-43.363265 167.183674-85.681632-26.122449-24.032653-54.857143-43.363265-86.204082-58.514286-23.510204 54.334694-55.902041 103.967347-96.653061 147.330612 5.22449-1.044898 9.926531-2.089796 14.628571-3.134694z m266.971429-240.848979l4.702041-15.673469c0-0.522449 0.522449-1.044898 0.522449-1.567347 1.044898-4.702041 2.089796-9.926531 3.134693-14.628572 0-1.044898 0.522449-1.567347 0.522449-2.612245 1.044898-4.702041 1.567347-8.881633 2.612245-13.583673 0-1.567347 0.522449-2.612245 0.522449-4.179592l1.567347-12.538776c0-1.567347 0.522449-3.134694 0.522449-4.70204 0.522449-4.179592 0.522449-8.359184 1.044898-13.061225v-3.134694H705.306122c-2.089796 49.632653-10.971429 98.220408-26.644898 145.240817 36.571429 17.240816 70.008163 39.706122 99.787756 67.395918 31.346939-36.571429 55.902041-79.412245 71.053061-126.955102z m14.106122-140.538776c0-1.567347-0.522449-3.134694-0.522449-4.70204l-1.567347-12.538776c0-1.567347-0.522449-2.612245-0.522449-4.179592-0.522449-4.702041-1.567347-8.881633-2.612245-13.583673 0-1.044898-0.522449-2.089796-0.522449-2.612245-1.044898-4.702041-2.089796-9.926531-3.134693-14.628572 0-0.522449-0.522449-1.044898-0.522449-1.567347-1.567347-5.22449-2.612245-10.44898-4.702041-15.673469-14.628571-47.542857-39.183673-90.383673-71.053061-126.955102-29.779592 27.689796-63.216327 50.155102-99.787756 67.395918 16.195918 47.020408 25.077551 95.608163 26.644898 145.240817h159.346939v-3.134694c-0.522449-4.702041-0.522449-8.881633-1.044898-13.061225z m-221.518367-114.416326c-35.526531 12.538776-72.620408 19.853061-110.759184 21.420408v108.669388h134.269388c-1.044898-44.408163-9.404082-87.771429-23.510204-130.089796z m-110.236735 169.795918V512c37.616327 2.089796 74.710204 8.881633 110.759184 21.420408 14.106122-41.795918 21.942857-85.681633 24.032653-130.089796h-134.791837z m0 147.330612V713.665306c40.75102-41.273469 73.665306-90.383673 96.653061-143.673469-31.346939-10.44898-63.738776-16.718367-96.653061-18.808164z m-39.706122 0c-34.481633 2.089796-67.918367 8.881633-100.310204 20.89796 24.032653 54.857143 57.991837 104.489796 100.832653 146.808163V551.183673z m-114.938776-15.673469c37.093878-13.583673 75.232653-21.420408 114.938776-22.987755v-108.669388H353.17551c1.567347 44.930612 9.926531 88.816327 24.032653 131.657143z m114.938776-171.363265v-108.669388c-39.706122-2.089796-77.844898-9.926531-114.938776-22.987755-14.628571 42.318367-22.465306 86.726531-24.555102 131.657143h139.493878z m0-147.330612v-167.183674c-42.318367 41.795918-76.8 91.95102-100.310204 146.285714 32.391837 12.016327 65.828571 18.808163 100.310204 20.89796z m39.706122 0c32.914286-1.567347 65.306122-8.359184 96.653061-18.808164-22.987755-53.289796-55.902041-101.877551-96.653061-143.673469V216.816327z m132.702041-33.959184c31.346939-15.15102 60.604082-34.481633 86.204082-58.514286-42.318367-38.661224-93.518367-67.395918-150.465306-82.02449-5.22449-1.567347-10.971429-2.612245-16.195919-3.657143-0.522449 0-1.044898 0-1.044898-0.522448-4.702041-1.044898-9.926531-2.089796-14.628571-2.612245 39.706122 42.840816 72.620408 92.995918 96.130612 147.330612z"  horiz-adv-x="1024" />

    
    <glyph glyph-name="arrowright" unicode="&#58897;" d="M273.7036373 748.64298574a49.56894141 49.56894141 0 0 0 1e-8 70.71835694 51.0735876 51.0735876 0 0 0 71.60426894 0l404.9888001-399.99675059a49.56894141 49.56894141 0 0 0 0-70.70429443L345.30790625-51.35051454999996a51.0735876 51.0735876 0 0 0-71.60426895 0 49.56894141 49.56894141 0 0 0 1e-8 70.71835694L642.91842617 384.01244531 273.7036373 748.64298574z"  horiz-adv-x="1024" />

    
    <glyph glyph-name="exchange" unicode="&#58911;" d="M298.40118557 352.93108110000003c135.12552334 0 244.66773333 109.54220999 244.66773333 244.66773333 0 135.12552334-109.54220999 244.66773333-244.66773333 244.66773334-135.12552334 0-244.66773333-109.54220999-244.66773334-244.66773334 0-135.12552334 109.54220999-244.66773333 244.66773334-244.66773333z m0-27.18530332c-150.14054912 0-271.85303666 121.71248867-271.8530378 271.85303665s121.71248867 271.85303666 271.8530378 271.8530378 271.85303666-121.71248867 271.85303665-271.8530378-121.71248867-271.85303666-271.85303665-271.85303665zM298.40118557 416.45731043c100.04191801 0 181.141504 81.09958599 181.141504 181.141504S398.44310243 778.74031843 298.40118557 778.74031843 117.25968157 697.64073245 117.25968157 597.59881443 198.35926755 416.45731043 298.40118557 416.45731043z m0-27.03481286c-114.97441621 0-208.17631801 93.20675555-208.17631802 208.17631686 0 114.97441621 93.20675555 208.17631801 208.17631802 208.17631802 114.97441621 0 208.17631801-93.20675555 208.17631686-208.17631802 0-114.97441621-93.20675555-208.17631801-208.17631686-208.17631686zM331.33909333 649.93052445h48.93840157a13.64119666 13.64119666 0 0 0 0-27.27753956H312.04238222v-27.27268466h68.23996644a13.64119666 13.64119666 0 0 0 0-27.27753956H312.04238222v-57.3173009a13.64119666 13.64119666 0 0 0-27.27268465 0V568.10276067H216.52487623a13.64119666 13.64119666 0 1 0 0 27.27753956H284.75998777v27.27753956H216.52487623a13.64119666 13.64119666 0 0 0 0 27.27268466h48.11313266l-24.81629867 24.81629866a13.64119666 13.64119666 0 1 0 19.28700245 19.28700246l38.88469334-38.87983958 38.87498354 38.88469334a13.64119666 13.64119666 0 1 0 19.28700245-19.29185622l-24.81629867-24.81629866zM725.59881443-74.26654776999999c135.12552334 0 244.66773333 109.54220999 244.66773334 244.66773334 0 135.12552334-109.54220999 244.66773333-244.66773334 244.66773333-135.12552334 0-244.66773333-109.54220999-244.66773333-244.66773333 0-135.12552334 109.54220999-244.66773333 244.66773333-244.66773334z m0-27.18530446c-150.14054912 0-271.85303666 121.71248867-271.85303665 271.8530378s121.71248867 271.85303666 271.85303665 271.85303665 271.85303666-121.71248867 271.8530378-271.85303665-121.71248867-271.85303666-271.8530378-271.8530378zM723.07931933-8.876183330000003c100.401152 0 181.7920091 81.395712 181.79201024 181.796864 0 100.3962971-81.3908571 181.78715534-181.79201024 181.78715421-100.3962971 0-181.78715534-81.3908571-181.78715421-181.78715421 0-100.401152 81.3908571-181.7920091 181.78715421-181.79201024z m0-27.131904c-115.38219577 0-208.9239131 93.54171733-208.92391311 208.928768 0 115.38219577 93.54171733 208.9239131 208.92391311 208.92391311 115.39190557 0 208.928768-93.54171733 208.928768-208.92391311 0-115.39190557-93.54171733-208.928768-208.928768-208.928768zM738.38561621 60.863829330000044c26.52994333 6.59729067 46.58881422 30.0106331 47.5839909 58.56976555 1.20877511 34.56417223-25.97167445 63.5650651-60.70089956 64.77869511a13.91305045 13.91305045 0 0 1-1.35926556-0.01941732 13.91305045 13.91305045 0 0 1-1.35926442 0.11165355c-18.12191801 0.63108779-32.30196622 15.76262201-31.67087958 33.79715755 0.63108779 18.03453667 15.82572999 32.13691221 33.9525029 31.50582556 18.11706311-0.63108779 32.29711133-15.76262201 31.67087844-33.79715754a13.64605155 13.64605155 0 0 1 13.19458133-14.07810446 13.64605155 13.64605155 0 0 1 14.14606734 13.12176355c1.00488533 28.74360377-18.51027911 53.46766734-45.45771179 60.19603001v12.56349354a13.68003357 13.68003357 0 1 1-27.36006599 0v-12.07804131c-26.3503269-5.61667755-46.51114155-28.46204245-47.49175467-56.47746845-1.15537579-33.05927111 24.84057088-60.80284445 58.064896-61.96307512 0.45632512-0.01456355 0.9126491-0.00970866 1.35926557 0.01941845 0.44661533-0.05825422 0.89808555-0.09708999 1.35926443-0.11650845 19.63167289-0.67963221 34.9913691-17.07819577 34.31173688-36.61277866-0.67963221-19.5345829-17.15101355-34.81660643-36.78268643-34.12726556-19.63167289 0.67963221-34.9913691 17.07334201-34.31173689 36.61277866a13.64605155 13.64605155 0 0 1-13.19458133 14.07810446 13.64605155 13.64605155 0 0 1-14.14606735-13.12661845c-1.09226667-31.21455445 20.9666651-57.89013333 50.8268089-63.66215623v-12.00522354a13.68003357 13.68003357 0 1 1 27.36492088 0v12.7091291zM851.81629667 568.4717033300001V665.56207445c0 32.17089422-26.083328 58.25422222-58.25422222 58.25422222h-111.65392668a19.41807445 19.41807445 0 1 1 0-38.8361489h111.65392668a19.41807445 19.41807445 0 0 0 19.41807332-19.41807332v-97.09037112h-30.70968377a9.70903666 9.70903666 0 0 1-7.02448867-16.41312712l50.12775822-52.51618133a9.70903666 9.70903666 0 0 1 14.04897735 0l50.12775822 52.51618133A9.70903666 9.70903666 0 0 1 882.52598045 568.4717033300001H851.81629667zM173.76627712 200.41181867v-97.09037c0-32.17089422 26.083328-58.25422222 58.25422222-58.25422222h111.65392555a19.41807445 19.41807445 0 1 1 0 38.83614777h-111.65392555a19.41807445 19.41807445 0 0 0-19.41807445 19.41807445v97.09037h30.70968377a9.70903666 9.70903666 0 0 1 7.02448867 16.41312711l-50.12775822 52.51618133a9.70903666 9.70903666 0 0 1-14.04897621 0l-50.12775823-52.51618133a9.70903666 9.70903666 0 0 1 7.02448754-16.40827221h30.70968491z"  horiz-adv-x="1024" />

    
    <glyph glyph-name="transfer" unicode="&#58943;" d="M530.24397 435.869157c-5.081886 0-12.704715 2.540943-17.7866 7.622829L367.623623 580.702904c-10.163772 10.163772-12.704715 25.409429-2.540943 35.573201s25.409429 10.163772 35.573201 0l127.047146-121.965261 134.669975 129.588089c10.163772 10.163772 25.409429 10.163772 35.573201 0s10.163772-25.409429 0-35.573201l-152.456576-144.833747C542.948685 438.4101 535.325856 435.869157 530.24397 435.869157zM708.109975 428.246329L357.459851 428.246329c-15.245658 0-25.409429 10.163772-25.409429 25.409429s10.163772 25.409429 25.409429 25.409429l348.109181 0c15.245658 0 25.409429-10.163772 25.409429-25.409429S720.81469 428.246329 708.109975 428.246329zM708.109975 275.789753L357.459851 275.789753c-15.245658 0-25.409429 10.163772-25.409429 25.409429s10.163772 25.409429 25.409429 25.409429l348.109181 0c15.245658 0 25.409429-10.163772 25.409429-25.409429S720.81469 275.789753 708.109975 275.789753zM532.784913 123.33317699999998c-15.245658 0-25.409429 10.163772-25.409429 25.409429L507.375484 438.4101c0 15.245658 10.163772 25.409429 25.409429 25.409429s25.409429-10.163772 25.409429-25.409429l0-289.667494C558.194342 133.49694899999997 548.030571 123.33317699999998 532.784913 123.33317699999998zM468.80397-128c-5.081886 0-10.163772 2.540943-15.245658 5.081886l-101.637717 81.310174c-7.622829 7.622829-12.704715 17.7866-7.622829 27.950372 2.540943 10.163772 12.704715 17.7866 22.868486 17.7866l464.992556 0c27.950372 0 53.359801 10.163772 71.146402 30.491315 17.7866 17.7866 27.950372 43.19603 27.950372 68.605459l-2.540943 350.650124c0 15.245658 10.163772 25.409429 25.409429 25.409429l0 0c12.704715 0 25.409429-10.163772 25.409429-25.409429l2.540943-350.650124c0-40.655087-15.245658-78.769231-43.19603-109.260546-27.950372-27.950372-66.064516-45.736973-106.719603-45.736973L438.312655-51.77171199999998l45.736973-35.573201c10.163772-7.622829 12.704715-25.409429 5.081886-35.573201C484.049628-125.45905700000003 476.426799-128 468.80397-128zM77.498759 283.632754c-12.704715 0-25.409429 10.163772-25.409429 25.409429L47.007444 659.692308c0 40.655087 15.245658 78.769231 43.19603 109.260546 30.491315 27.950372 68.605459 45.736973 109.260546 45.736973l391.305211 0-45.736973 35.573201c-10.163772 7.622829-12.704715 25.409429-5.081886 35.573201s25.409429 12.704715 35.573201 5.081886l101.637717-81.310174c7.622829-7.622829 12.704715-17.7866 7.622829-27.950372S674.620347 763.870968 664.456576 763.870968L199.46402 763.870968c-27.950372 0-53.359801-12.704715-71.146402-30.491315C107.990074 713.052109 97.826303 687.64268 97.826303 662.233251L100.367246 311.583127C102.908189 296.33746900000006 90.203474 283.632754 77.498759 283.632754L77.498759 283.632754z"  horiz-adv-x="1024" />

    
    <glyph glyph-name="apply" unicode="&#59233;" d="M641 596.4V791.2c0 22.6-18.3 40.9-40.9 40.9H168.2c-22.2 0-40.1-18-40.1-40.1v-815.4c0-22.2 18-40.1 40.1-40.1H856c22.2 0 40.1 18 40.1 40.1V535.3c0 22.5-18.2 40.7-40.7 40.7h-194c-11.3 0-20.4 9.1-20.4 20.4z m126.1-499.1c0-17.1-14-31.1-31.1-31.1H287.9c-17.1 0-31.1 14-31.1 31.1s14 31.1 31.1 31.1h448.2c17.1 0 31-14 31-31.1z m0 160.6c0-17.1-14-31.1-31.1-31.1H287.9c-17.1 0-31.1 14-31.1 31.1s14 31.1 31.1 31.1h448.2c17.1-0.1 31-14 31-31.1z m0 159c0-17.1-14-31.1-31.1-31.1H287.9c-17.1 0-31.1 14-31.1 31.1s14 31.1 31.1 31.1h448.2c17.1 0 31-14 31-31.1zM710.7 805.4l157-157c9.9-9.9 2.9-26.9-11.1-26.9h-157c-8.7 0-15.7 7-15.7 15.7v157c-0.1 14 16.9 21.1 26.8 11.2z"  horiz-adv-x="1024" />

    
    <glyph glyph-name="upgrade" unicode="&#58947;" d="M809.38 792.1H214.63c-61.69 0-110.73-50.62-110.73-110.73v-594.75c0-61.69 50.62-110.72 110.73-110.72h594.75c60.11 0 110.72 50.62 110.72 110.72V681.37c0 61.7-50.62 110.73-110.72 110.73zM619.56 64.48000000000002H412.35c-4.75 0-9.49 4.75-9.49 9.49s4.75 9.49 9.49 9.49h207.21c4.75 0 9.49-4.75 9.49-9.49s-3.16-9.49-9.49-9.49z m-7.91 36.38H421.84c-11.07 0-18.98 7.91-18.98 18.98s7.91 18.98 18.98 18.98h189.81c11.08 0 18.99-7.91 18.99-18.98 0-9.49-7.91-18.98-18.99-18.98z m134.46 303.71H633.64c0.1-1.05 0.15-2.1 0.15-3.17v-211.96c-1.58-18.98-15.82-34.8-34.8-34.8H440.82c-18.98 0-34.8 15.82-34.8 34.8V401.4c0 1.07 0.06 2.12 0.15 3.17H300.04c-23.73-1.58-36.38 26.89-18.99 44.29l223.03 223.03c11.07 11.07 26.89 11.07 37.96 0l223.03-223.03c17.41-17.41 4.76-44.29-18.96-44.29z"  horiz-adv-x="1024" />

    
    <glyph glyph-name="account" unicode="&#59367;" d="M852.48-100.86400000000003h-680.96c-78.848 0-143.36 64.512-143.36 143.36v527.36c0 22.528 18.432 40.96 40.96 40.96s40.96-18.432 40.96-40.96v-527.36c0-33.792 27.648-61.44 61.44-61.44h680.96c33.792 0 61.44 27.648 61.44 61.44v527.36c0 22.528 18.432 40.96 40.96 40.96s40.96-18.432 40.96-40.96v-527.36c0-78.848-64.512-143.36-143.36-143.36zM512 87.55200000000002c-17.408 0-34.816 6.144-48.64 17.92L284.672 256c-24.576 20.48-33.28 53.76-22.016 83.456 11.264 30.208 38.912 49.664 71.168 49.664h44.032V794.112c0 41.472 33.792 75.776 75.776 75.776h117.76c22.528 0 40.96-18.432 40.96-40.96s-18.432-40.96-40.96-40.96H459.776v-404.992c0-41.472-33.792-75.776-75.776-75.776h-32.768l160.768-135.68 160.768 135.68H640c-41.472 0-75.776 33.792-75.776 75.776V605.696c0 22.528 18.432 40.96 40.96 40.96s40.96-18.432 40.96-40.96V389.12h44.032c32.256 0 59.904-19.456 71.168-49.664 11.264-30.208 2.048-62.976-22.016-83.456l-178.176-150.528c-14.336-11.776-31.744-17.92-49.152-17.92z"  horiz-adv-x="1024" />

    
    <glyph glyph-name="account2" unicode="&#58898;" d="M1246.89066662-80.89599999999996h-872.96c-39.936 0-72.192 32.256-72.192 72.192v256.512l26.112-0.512h2.56c74.24 0 135.168 61.44 135.168 136.704s-60.416 136.192-135.168 136.704h-2.56l-26.112-0.512v256.512c0 39.936 32.256 72.192 72.192 72.192h872.96c39.936 0 72.192-32.256 72.192-72.192v-256h-25.6c-74.752 0-135.68-61.44-135.68-136.704s60.928-136.704 135.68-136.704h25.6v-256c0-39.424-32.256-72.192-72.192-72.192z m-893.44 278.528V-8.70399999999995c0-11.776 9.216-20.992 20.992-20.992h872.96c11.264 0 20.992 9.728 20.992 20.992v206.848c-90.624 12.8-161.28 91.136-161.28 185.856 0 94.72 70.144 173.568 161.28 185.856v206.848c0 11.776-9.216 20.992-20.992 20.992h-872.96c-11.264 0-20.992-9.728-20.992-20.992v-206.336c92.16-11.264 163.328-90.624 163.328-186.368s-71.168-174.592-163.328-186.368zM968.36266662 99.32799999999997h-315.904c-14.336 0-25.6 11.264-25.6 25.6s11.264 25.6 25.6 25.6h315.904c14.336 0 25.6-11.264 25.6-25.6s-11.264-25.6-25.6-25.6zM810.66666662 436.224c-62.976 0-113.664 51.2-113.664 114.176s51.2 114.176 113.664 114.176c62.976 0 113.664-51.2 113.664-114.176s-50.688-114.176-113.664-114.176z m0 177.664c-34.304 0-62.464-28.16-62.464-62.976s28.16-62.976 62.464-62.976 62.464 28.16 62.464 62.976-28.16 62.976-62.464 62.976zM968.36266662 290.304c-14.336 0-25.6 11.264-25.6 25.6 0 66.56-59.392 120.32-132.096 120.32s-132.096-54.272-132.096-120.32c0-14.336-11.264-25.6-25.6-25.6s-25.6 11.264-25.6 25.6c0 94.72 82.432 171.52 183.296 171.52 101.376 0 183.296-76.8 183.296-171.52 0-14.336-11.264-25.6-25.6-25.6z"  horiz-adv-x="1638" />

    
    <glyph glyph-name="scan" unicode="&#58966;" d="M113.777664 583.1106560000001v142.22336c0 31.418368 25.469952 56.88832 56.889344 56.88832h142.222336c15.70816 0 28.443648-12.735488 28.443648-28.444672s-12.734464-28.444672-28.443648-28.444672h-142.22336v-142.222336c0-15.70816-12.734464-28.443648-28.443648-28.443648-15.709184 0-28.444672 12.734464-28.444672 28.443648z m56.889344-398.221312v-142.22336h142.222336c15.70816 0 28.443648-12.734464 28.443648-28.443648 0-15.709184-12.734464-28.444672-28.443648-28.444672h-142.22336c-31.418368 0-56.88832 25.469952-56.88832 56.889344V184.88934400000005c0 15.70816 12.735488 28.443648 28.444672 28.443648s28.444672-12.734464 28.444672-28.443648z m682.665984 398.221312v142.22336H711.110656c-15.70816 0-28.443648 12.734464-28.443648 28.443648 0 15.709184 12.734464 28.444672 28.443648 28.444672h142.22336c31.418368 0 56.88832-25.469952 56.88832-56.889344v-142.222336c0-15.70816-12.735488-28.443648-28.444672-28.443648s-28.444672 12.734464-28.444672 28.443648z m56.889344-398.221312v-142.22336c0-31.418368-25.469952-56.88832-56.889344-56.88832H711.110656c-15.70816 0-28.443648 12.735488-28.443648 28.444672s12.734464 28.444672 28.443648 28.444672h142.22336V184.88934400000005c0 15.70816 12.734464 28.443648 28.443648 28.443648 15.709184 0 28.444672-12.734464 28.444672-28.443648zM142.222336 412.444672H881.77664c15.709184 0 28.444672-12.735488 28.444672-28.444672s-12.735488-28.444672-28.444672-28.444672H142.22336c-15.709184 0-28.444672 12.735488-28.444672 28.444672s12.735488 28.444672 28.444672 28.444672z"  horiz-adv-x="1024" />

    
    <glyph glyph-name="arrow-up" unicode="&#59106;" d="M826.2 241.39999999999998l-3.6 4.2-272 313c-9.2 10.6-23 17.2-38.4 17.2-15.4 0-29.2-6.8-38.4-17.2L202 246.20000000000005l-4.6-5.2C194 236 192 230 192 223.60000000000002c0-17.4 14.8-31.6 33.2-31.6l0 0 573.6 0 0 0c18.4 0 33.2 14.2 33.2 31.6C832 230.20000000000005 829.8 236.39999999999998 826.2 241.39999999999998z"  horiz-adv-x="1024" />

    
    <glyph glyph-name="arrow-down" unicode="&#59014;" d="M197.8 526.6l3.6-4.2 272-313c9.2-10.6 23-17.2 38.4-17.2 15.4 0 29.2 6.8 38.4 17.2L822 521.8l4.6 5.2c3.4 5 5.4 11 5.4 17.4 0 17.4-14.8 31.6-33.2 31.6l0 0L225.2 576l0 0c-18.4 0-33.2-14.2-33.2-31.6C192 537.8 194.2 531.6 197.8 526.6z"  horiz-adv-x="1024" />

    
    <glyph glyph-name="logo" unicode="&#58880;" d="M507.904 504.832q-72.704 0-129.024 16.896t-86.016 33.28q-1.024 1.024-1.024 5.12l0 8.192q0 2.048 0.512 0.512t0.512-13.824l0-523.264-115.712 0 0 614.4q0 20.48 7.168 43.52t34.816 34.304q14.336 6.144 28.16 4.608t24.576-6.144 18.432-10.24 10.752-7.68q19.456-15.36 39.936-28.672t44.544-24.064 53.76-16.896 67.584-6.144l4.096 0 1.024 0 4.096 0q37.888 0 67.584 6.144t54.272 16.896 45.056 24.064 38.912 28.672q3.072 2.048 10.752 7.68t18.944 10.24 25.088 6.144 28.16-4.608q26.624-11.264 34.304-34.304t7.68-43.52l0-614.4-116.736 0 0 523.264q0 12.288 1.024 13.312 1.024-3.072 0.512-7.68t-1.536-5.632q-14.336-8.192-36.864-16.896t-50.688-16.384-60.928-12.288-66.56-4.608l-7.168 0z"  horiz-adv-x="1024" />

    
    <glyph glyph-name="ring" unicode="&#59056;" d="M944.79209 32.793421999999964L79.194432 32.793421999999964l0 23.507804c0 45.054386 29.230276 125.612274 98.464118 141.033393L176.368979 543.329202c0 54.430642 24.004827 79.953401 54.390343 112.273274 10.665827 11.350911 22.768988 24.219755 35.5438 40.15133 24.877974 30.97657 56.163503 47.673827 86.414689 63.833764 20.565971 10.961353 39.990134 21.345086 55.70678 35.516934 17.395775 15.703213 31.890016 35.140809 44.678261 52.308223C473.346431 874.547449 489.331738 896 513.027604 896c25.563058 0 42.23345-23.386907 61.523282-50.467898 12.694214-17.798766 27.067558-37.988612 45.242449-54.524673 15.11216-13.741991 34.979613-23.521237 56.002307-33.864671 30.479548-15.004696 62.006871-30.506414 85.48781-60.475506 10.867322-13.889754 21.304787-25.966049 30.506414-36.631876 31.258663-36.188586 55.962008-64.774076 55.962008-116.625576l1.356736-347.902072c66.547236-19.504761 95.696913-98.410386 95.696913-139.206501L944.805523 32.793421999999964zM129.501134 79.809031l764.56783 0c-8.771769 31.191498-32.951225 69.596534-70.456248 72.860761l-21.385385 1.867191-1.504499 388.792219c0 34.428859-15.810678 52.751513-44.517065 85.971399-9.550885 11.055385-20.377908 23.601836-31.930315 38.351304-16.858454 21.519716-42.300615 34.039301-69.233842 47.297702-23.037648 11.337478-46.854412 23.064514-66.883062 41.279705-21.909274 19.921185-38.539366 43.267793-51.891799 62.006871-7.280703 10.222537-16.831588 23.628702-22.782421 29.042213-5.897101-5.49411-15.407687-18.242056-22.674956-27.994437-13.392732-17.94653-30.049691-40.28566-50.870889-59.091904-20.001783-18.027128-42.905101-30.264619-65.05617-42.085686-27.282486-14.574839-53.04704-28.31683-71.893582-51.770902-13.930053-17.368909-26.691433-30.963137-37.961746-42.931967-27.712343-29.47207-41.628963-44.27527-41.628963-79.980267l1.450767-390.390749-23.467505-0.13433C157.97916 152.66979200000003 136.956466 110.57067199999995 129.501134 79.809031zM511.993261-127.99995999999999c-69.086079 0-128.352612 49.366389-140.939362 117.377826l-5.144851 27.779508 292.168426 0-5.144851-27.779508C640.359306-78.64700300000004 581.07934-127.99995999999999 511.993261-127.99995999999999zM426.975607-29.858235000000036c16.374865-30.788507 48.681305-51.139549 85.031087-51.139549 36.349782 0 68.656222 20.351042 85.031087 51.139549L426.975607-29.858235000000036zM511.993261-91.059124"  horiz-adv-x="1024" />

    
    <glyph glyph-name="minus" unicode="&#58915;" d="M512 896C230.4 896 0 665.6 0 384s230.4-512 512-512 512 230.4 512 512S793.6 896 512 896zM512-76.79999999999995C256-76.79999999999995 51.2 128 51.2 384S256 844.8 512 844.8 972.8 640 972.8 384 768-76.79999999999995 512-76.79999999999995zM774.4 409.6L537.6 409.6 537.6 646.4c0 12.8-12.8 25.6-25.6 25.6S486.4 659.2 486.4 646.4l0-236.8L249.6 409.6C236.8 409.6 224 396.8 224 384c0-12.8 12.8-25.6 25.6-25.6l236.8 0 0-236.8c0-12.8 12.8-25.6 25.6-25.6s25.6 12.8 25.6 25.6L537.6 358.4l236.8 0c12.8 0 25.6 12.8 25.6 25.6C800 396.8 787.2 409.6 774.4 409.6z"  horiz-adv-x="1024" />

    
    <glyph glyph-name="eye-open" unicode="&#58908;" d="M512 640.22c-194.98 0-360.39-106.95-421.96-256 61.57-149.05 226.98-256 421.96-256s360.39 106.95 421.96 256c-61.57 149.05-226.98 256-421.96 256z m0-448c-106.04 0-192 85.96-192 192s85.96 192 192 192 192-85.96 192-192-85.96-192-192-192zM512 384.22m-128 0a128 128 0 1 1 256 0 128 128 0 1 1-256 0Z"  horiz-adv-x="1024" />

    
    <glyph glyph-name="eye-close" unicode="&#58924;" d="M815.5 99.20000000000005c-18.7-18.7-49.1-18.7-67.9 0L272.5 574.4c-18.7 18.7-18.7 49.1 0 67.9 18.7 18.7 49.1 18.7 67.9 0l475.2-475.2c18.7-18.7 18.7-49.1-0.1-67.9zM444.8 492.5C408.4 470 384 430 384 384c0-70.7 57.3-128 128-128 46 0 86 24.4 108.5 60.8L444.8 492.5zM498.5 574.6c4.5 0.3 8.9 1.4 13.5 1.4 106 0 192-86 192-192 0-4.6-1-9-1.4-13.5l127.6-127.6c45.6 39.7 81.5 87.5 103.7 141.1-61.6 149-227 256-422 256-25.1 0-49.6-1.9-73.6-5.3l60.2-60.1zM666.5 270.9c-35-47.6-90.9-78.9-154.5-78.9-106 0-192 86-192 192 0 63.6 31.3 119.5 78.9 154.5l-67.7 67.7C219.4 563.6 131.2 483.7 90 384c61.6-149 227-256 422-256 87.6 0 168.6 22.5 237.6 59.8l-83.1 83.1z"  horiz-adv-x="1024" />

    
    <glyph glyph-name="market" unicode="&#58996;" d="M546.22435555 768.7691377799999l235.41987556 0L622.24611555 435.11808l0.94663112-1.74762667 36.91861333 0 148.47544889 310.71345778 146.87345778-310.71345778 38.30215111 0-158.52430223 335.39868445 0.07281778 0L835.31093333 804.59548445 572.94848 804.59548445 572.94848 827.53308445C572.94848 864.01479111 543.23882667 893.72444445 506.75712 893.72444445 470.20259555 893.72444445 440.56576 864.01479111 440.56576 827.53308445l0-22.86478223L186.21326222 804.66830222l0-35.82634667 3.49525333 0-159.47093333-333.72387555 0.94663111-1.74762667 36.91861334 0 148.47544888 310.71345778L363.45173333 433.37045333l38.30215112 0L243.3024 768.7691377799999l221.87576889 0 0-773.76170667-278.89208889-83.66762666L186.28608-125.72444444999996l649.02485333 0 0 37.0642489L546.22435555-4.99256889000003 546.22435555 768.7691377799999zM401.82670222 384c0 2.11171555-0.21845333 4.15061333-0.29127111 6.18951111L30.60167111 390.18951111C30.52885333 388.15061333 30.3104 386.11171555 30.3104 384c0-102.60024889 83.15790222-185.83096889 185.75815111-185.83096889C318.6688 198.16903111 401.82670222 281.39975111 401.82670222 384zM622.53738667 390.18951111C622.46456889 388.15061333 622.24611555 386.11171555 622.24611555 384c0-102.60024889 83.23072-185.83096889 185.75815112-185.83096889S993.6896 281.39975111 993.6896 384c0 2.11171555-0.21845333 4.15061333-0.29127111 6.18951111L622.53738667 390.18951111z"  horiz-adv-x="1024" />

    
    <glyph glyph-name="exchangeSLG" unicode="&#59028;" d="M990.97916075 8.583900729999982l0-12.94538297c0-7.14585088-5.79953095-12.94538297-12.94538297-12.94538297L84.80236999-17.30686406999996c-21.45049941 0-38.83614777 17.38564949-38.83614777 38.83614777L45.96622222 772.3614811c0 7.14585088 5.79953095 12.94538297 12.94538297 12.94538297l12.94538297 0c7.14585088 0 12.94538297-5.79953095 12.94538297-12.94538297l0-737.88681443c0-7.14585088 5.79953095-12.94538297 12.94538297-12.94538297l880.28602481 0C985.17962866 21.52928369999995 990.97916075 15.729752749999989 990.97916075 8.583900729999982zM175.42004963 60.36543260999997l155.34459222 0c7.14585088 0 12.94538297 5.79953095 12.94538297 12.94538296L343.71002482 591.1261229500001c0 7.14585088-5.79953095 12.94538297-12.94538297 12.94538297L175.42004963 604.0715059199999c-7.14585088 0-12.94538297-5.79953095-12.94538296-12.94538297l0-517.81530852C162.47466667 66.16496355000004 168.27419762 60.36543260999997 175.42004963 60.36543260999997zM421.38232149 60.36543260999997l155.34459222 0c7.14585088 0 12.94538297 5.79953095 12.94538296 12.94538296L589.67229667 694.6891855700001c0 7.14585088-5.79953095 12.94538297-12.94538296 12.94538296L421.38232149 707.63456739c-7.14585088 0-12.94538297-5.79953095-12.94538296-12.94538296l0-621.37837C408.43693853 66.16496355000004 414.23646947 60.36543260999997 421.38232149 60.36543260999997zM667.34459221 60.36543260999997l155.34459222 0c7.14585088 0 12.94538297 5.79953095 12.94538296 12.94538296L835.63456739 396.94538297c0 7.14585088-5.79953095 12.94538297-12.94538296 12.94538297L667.34459221 409.89076594c-7.14585088 0-12.94538297-5.79953095-12.94538296-12.94538297l0-323.6345674C654.39921038 66.16496355000004 660.19874133 60.36543260999997 667.34459221 60.36543260999997z"  horiz-adv-x="1024" />

    
    <glyph glyph-name="find" unicode="&#59500;" d="M971.56329875 843.84593531c-38.38869469 37.90883625-123.80353969 20.15406469-232.73146031-37.90883625A475.060095 475.060095 0 0 1 511.85868125 864a479.85868125 479.85868125 0 0 1-422.27563969-707.31169688C32 48.240240940000035 14.24522844-37.17460405999998 52.15406469-75.56329874999994c76.29753-76.29753 343.57881562 67.66007437 597.42405844 321.50531719S1047.38097031 768.02826375 971.56329875 843.84593531zM319.91520875 432.12718688a47.98586812 47.98586812 0 1 0 47.98586812 47.98586812 47.98586812 47.98586812 0 0 0-47.98586812-47.98586812z m191.9434725 143.95760437a95.97173625 95.97173625 0 1 0 95.97173625 95.97173625 95.97173625 95.97173625 0 0 0-95.97173625-95.97173625zM959.08697281 556.89044344a1823.46298969 1823.46298969 0 0 0-275.43888281-344.53853344 1826.34214219 1826.34214219 0 0 0-344.53853344-275.43888281A479.85868125 479.85868125 0 0 1 959.08697281 556.89044344z"  horiz-adv-x="1024" />

    
    <glyph glyph-name="setup" unicode="&#59228;" d="M905.6 384c0 55.89333333 35.09333333 103.25333333 84.26666667 122.13333333-11.73333333 46.08-29.86666667 89.49333333-53.54666667 129.38666667C888.10666667 614.0799999999999 829.86666667 622.82666667 790.4 662.4c-39.46666667 39.46666667-48.21333333 97.81333333-26.77333333 145.92C723.62666667 832 680.21333333 850.13333333 634.13333333 861.86666667c-18.98666667-49.17333333-66.34666667-84.26666667-122.13333333-84.26666667-55.89333333 0-103.25333333 35.09333333-122.13333333 84.26666667-46.08-11.73333333-89.49333333-29.86666667-129.38666667-53.54666667 21.44-48.21333333 12.69333333-106.45333333-26.77333333-145.92-39.46666667-39.46666667-97.81333333-48.21333333-145.92-26.88C64 595.6266666700001 45.86666667 552.2133333300001 34.13333333 506.13333333c49.17333333-18.98666667 84.26666667-66.34666667 84.26666667-122.13333333 0-55.89333333-35.09333333-103.25333333-84.26666667-122.13333333 11.73333333-46.08 29.86666667-89.49333333 53.54666667-129.38666667C135.89333333 153.91999999999996 194.13333333 145.17333333 233.6 105.60000000000002c39.46666667-39.46666667 48.21333333-97.81333333 26.77333333-145.92C300.37333333-64 343.78666667-82.13333333000003 389.86666667-93.86666666999997c18.98666667 49.17333333 66.34666667 84.26666667 122.13333333 84.26666667 55.89333333 0 103.25333333-35.09333333 122.13333333-84.26666667 46.08 11.73333333 89.49333333 29.86666667 129.38666667 53.54666667-21.44 48.21333333-12.69333333 106.45333333 26.77333333 145.92 39.46666667 39.46666667 97.81333333 48.21333333 145.92 26.88C960 172.37333333000004 978.13333333 215.78666667000005 989.86666667 261.86666667c-49.17333333 18.88-84.26666667 66.24-84.26666667 122.13333333zM512 252.79999999999995c-72.42666667 0-131.2 58.77333333-131.2 131.2s58.77333333 131.2 131.2 131.2 131.2-58.77333333 131.2-131.2-58.77333333-131.2-131.2-131.2z"  horiz-adv-x="1024" />

    
    <glyph glyph-name="assets" unicode="&#58914;" d="M576.01599969 192C539.43999969 192 512.01600031 218.30399999999997 512.01600031 256.00000031L512.01600031 319.99999969C512.01600031 357.71200031 539.43999969 384 576.01599969 384L992.01600031 384 992.01600031 192 576.01599969 192ZM640.016 352.00000031C612.59199969 352.00000031 576.01599969 316.28800031000003 576.01599969 288 576.01599969 259.72799999999995 612.59199969 223.99999968999998 640.016 223.99999968999998 667.44000031 223.99999968999998 704.01600031 259.72799999999995 704.01600031 288 704.01600031 316.28800031000003 667.44000031 352.00000031 640.016 352.00000031ZM480.01599969 319.99999969L480.01599969 256.00000031C480.01599969 199.45600031000004 521.168 160.00000031000002 576.01599969 160.00000031000002L928.016 160.00000031000002 928.016 31.99999968999998C928.016-24.54400031 886.86399969-64.00000031000002 832.016-64.00000031000002L128.01600031-64.00000031000002C73.16799969-64.00000031000002 32.01600031-24.54400031 32.01600031 31.99999968999998L32 661.344C32 717.90400031 73.16799969 768 128.01600031 768L416.01600031 768 352.016 703.99999969 128.01600031 703.99999969C100.592 703.99999969 65.12 702.44800031 65.12 674.1760003100001 65.12 645.888 68.59200031 640.00000031 96.01599969 640.00000031L928.016 640.00000031 928.016 415.99999969 576.01599969 415.99999969C521.168 415.99999969 480.01599969 376.55999999999995 480.01599969 319.99999969ZM384.01599969 672L685.83999969 832.01599969 736.016 672 384.01599969 672ZM768.01599969 768L832.016 768C860.99199969 768 877.856 724.4159999999999 896.01600031 703.99999969L768.01599969 703.99999969 768.01599969 768Z"  horiz-adv-x="1025" />

    


  </font>
</defs>
</svg>
